<svg width="165" height="32" viewBox="0 0 165 32" xmlns="http://www.w3.org/2000/svg"><title>Slice 1</title><g fill="none" fill-rule="evenodd"><path d="M26.6 24.19l.11-.793h.584c1.498 0 1.242-.792 1.06-1.368l-1.425-6.048-4.385 6.047c-.584 1.043-.584 1.367.475 1.367h.548l-.11.792h-4.71l.182-.793h1.06c.62 0 1.168-.792 1.607-1.368l5.005-7.272-3.034-12.13c-.11-.612-.438-1.404-1.826-1.404h-.584l.11-.9h11.105l-.11.9h-.95c-.914 0-.804.792-.658 1.404l1.17 4.68 3.47-5.04c.328-.252.547-1.044-.366-1.044h-.44l.11-.9h4.713l-.22.9h-.84c-1.132 0-1.35.612-1.716 1.152L32.263 8.46l3.25 13.57c.22.683.585 1.367 1.608 1.367h.476l-.146.792H26.6zM96.194 22.39l.694-4.716h.804c.22 4.716 1.862 5.615 3.142 5.724 1.39.144 2.776-.468 3.58-1.584.913-1.26 1.17-2.628.548-3.636L99.08 8.098c-.804-1.33-1.06-4.93 1.498-6.406C102.223.792 103.72 0 106.02 0c3.362 0 4.75.54 6.394 2.628l-.693 4.5h-.804l-.145-2.665c-.364-2.303-1.826-3.923-3.69-3.78-.803.108-1.497.54-2.118 1.332-.33.612-.804 1.512.146 3.096l5.08 8.353c.84 1.296.912 2.304.912 3.42 0 3.42-4.165 7.56-9.607 7.63-2.522-.072-3.58-.79-5.3-2.123zM39.3 22.605l2.81-20.23c.074-.54-1.06-1.15-1.423-1.15h-.804l.11-.9h11.105c3.617.216 7.343.9 7.234 6.442-.146 3.42-3.106 5.58-4.53 6.264-1.096.577-2.704 1.045-4.092 1.045h-1.827l-1.17 8.063c-.145.684.22 1.26 1.17 1.26h1.17l-.257.792H37.582l.11-.792c1.023-.11 1.607-.216 1.607-.793zm10.41-9.466c.585 0 1.17-.217 1.28-1.01.11-.467 1.023-7.666 1.388-9.502 0-1.044-.584-1.404-1.498-1.404h-1.278L47.994 13.14h1.717zM153.967 24.19l-5.443-19.547-2.56 17.746c-.108.683.147 1.007.695 1.007h1.278l-.22.792h-4.97v-.793h1.17c.913 0 .913-.685.913-1.008l2.888-20.015c.11-.792-.22-1.152-2.41-1.152l.11-.9h8.803l4.422 15.767 1.973-13.714c0-.792-.365-1.152-1.973-1.152l.11-.9h4.968l-.11.9h-.694c-.803 0-1.17.36-1.278 1.152l-3.25 21.813h-4.42zM11.216 11.88h3.36c.95 0 1.864-.217 1.937-1.585l.256-1.404h.803l-1.06 6.877h-.658l.22-1.512c.146-.9-.548-1.584-1.352-1.584h-3.507L9.718 23.398H14.724c.986-.216 2.52-1.15 3.36-5.724h.805l-.915 6.516H0l.22-.793h1.06c.913 0 1.35-.576 1.35-.792l2.923-20.59c0-.792-.475-.792-2.41-.792l.108-.9h17.39l-.693 4.788h-.804v-.647c0-1.404-.11-3.24-1.46-3.24H12.75L11.216 11.88zM135.36 11.88h3.214c1.06 0 1.863-.217 2.12-1.585l.218-1.404h.804l-1.022 6.877h-.805l.22-1.512c.145-.9-.477-1.584-1.28-1.584h-3.58L133.754 23.4h4.968c1.17-.216 2.522-1.15 3.36-5.724h.806l-1.023 6.516h-17.72l.11-.792h1.06c.805 0 1.353-.576 1.5-.792l2.774-20.59c0-.792-.475-.792-2.41-.792l.072-.9h17.28l-.62 4.788h-.806v-.65c0-1.403-.22-3.24-1.388-3.24h-4.933L135.36 11.88z" fill="#E30613"/><path d="M111.187 22.39l.694-4.716h.84c.074 4.716 1.72 5.615 2.96 5.724 1.498.144 2.924-.468 3.727-1.584.805-1.26 1.06-2.628.55-3.636l-5.993-10.08c-.693-1.33-.95-4.93 1.498-6.406C117.105.792 118.604 0 121.014 0c3.29 0 4.786.54 6.284 2.628l-.657 4.5h-.84l-.11-2.665c-.364-2.303-1.717-3.923-3.615-3.78-.95.108-1.607.54-2.12 1.332-.292.612-.913 1.512 0 3.096l5.26 8.353c.806 1.296.915 2.304.915 3.42 0 3.42-4.31 7.774-9.754 7.63-2.522-.072-3.582-.79-5.19-2.123zM67.986 11.88c.475 0 1.06-.11 1.17-1.045l1.168-8.46c.11-1.15-1.278-1.15-2.667-1.15L66.16 11.878h1.826zm3.946 12.31c-.694 0-1.498-.47-1.498-.793-.11-.324-1.827-9-1.973-9.323-.218-.468-.474-1.15-.912-1.15l-1.607-.253-1.168 9.36c-.256.9.22 1.367 1.28 1.367h.802l-.256.792h-11.8l.11-.793h1.168c.95 0 1.28-.576 1.39-.9l2.666-20.12c.11-.54-.11-1.153-1.133-1.153h-.95v-.9h11.214c3.836 0 8.11.9 7.745 5.255-.55 4.354-4.823 5.938-5.298 6.082-.475.108-2.887.9-3.252.9 3.727.792 6.138.9 6.576 2.52.62 1.8 1.425 6.264 1.425 6.73.11.217.695 1.585 1.5 1.585h.803l-.256.792h-6.575z" fill="#E30613"/><path d="M78.383 23.432c.95.107 1.498-.61 1.498-.826l2.777-20.59c0-.792-.292-.792-2.41-.792l.255-.9h17.244l-.657 4.788h-.806v-.65c0-1.403-.146-3.24-1.424-3.24h-4.97L88.503 11.88h3.252c1.06 0 1.863-.216 2.082-1.584l.22-1.404h.804l-1.023 6.876h-.73l.146-1.512c.11-.9-.44-1.584-1.28-1.584h-3.47L86.97 23.397H91.973c1.023-.216 2.447-1.15 3.252-5.724h.803l-1.06 6.516H78.164l.22-.758z" fill="#E30613"/><path d="M153.05 26.81c-.038.004-.075.007-.114.006-.325 0-.75-.175-.994-.59-.29.31-.625.652-.984 1.006l-.005.005.02.04c.177.334.724.43 1.042.338l.014-.005h.003l.01-.008c.377-.29.72-.56 1.012-.793h-.005z" fill="#F9EB00"/><path d="M152.383 20.622c-.03-.006-.06-.012-.09-.02h-.012l-.32-.07c.116.163.457.476.715.68l.014-.127c.02-.153.04-.27.06-.395h-.003l-.364-.068zM149.363 19.816c-.004.022-.016.083-.03.17l.685-.105c-.06-.04-.12-.085-.186-.138-.48-.387-.436-.105-.47.074z"/><path d="M155.127 24.29h-.012c-.007 0-.014 0-.02-.003-.083-.008-.165-.02-.245-.04l-.033-.008c-.346-.084-.666-.254-.942-.49l.003-.004c-.21.344-.473.693-.764 1.066.396.617.974.74 1.67.577.383-.325.883-.766 1.4-1.27-.356.15-.715.2-1.057.17zM149.39 19.072c.214-.137.474-.443.72-.857l-.01-.004c-.035-.008-.2-.05-.404-.112-.164.234-.36.485-.596.754l.285.22h.005zM152.657 18.557c-.458.75-1.01 1.324-1.22 1.453.596.323 1.2.476 1.705.17.385-.233 1.028-.848 1.496-1.563l-.24.002c-.625-.002-1.212-.026-1.74-.063zM154.14 21.19c.15.368.22.704.224 1.02 1.078.316 3.598-.622 4.464-2.015 0 0 0-.002.002-.003v-.002c.058-.586-.167-1.098-.816-1.46l-.1-.054.03.017c-.336.553-2.06 1.99-3.803 2.497z" fill="#F9EB00"/><path d="M158.827 20.196c-.866 1.393-3.386 2.33-4.464 2.016 0 .065-.002.13-.007.194v.008l-.01.102-.014.094v.002l-.022.115-.015.057c-.003.013-.005.025-.01.04-.013.054-.028.107-.046.16l-.02.047c-.013.04-.026.082-.044.123l-.013.033-.01.023c-.02.048-.044.098-.067.147-.008.018-.018.035-.026.054l-.03.06c-.01.02-.02.043-.033.064l-.022.04-.03.055c-.02.038-.045.077-.068.116l-.003.003c.276.236.597.406.942.49l.033.008c.08.018.16.03.243.04.008 0 .015 0 .02.002h.013c.342.03.7-.02 1.058-.17.138-.134.277-.272.415-.414l.035-.036c.01-.01.02-.02.027-.03l.072-.073.075-.08c.01-.012.024-.025.036-.04.215-.227.425-.462.623-.702 0-.002.003-.003.004-.005l.11-.136.012-.015.103-.13.014-.018.103-.135.007-.01.104-.14.04-.058.056-.078.057-.084.034-.048c.02-.032.04-.064.062-.096.007-.01.014-.02.02-.032.012-.018.02-.034.033-.05 0-.004 0-.005.003-.008l.03-.052.008-.01c.02-.033.04-.064.058-.096-.02.03-.037.063-.057.095.3-.487.504-.967.556-1.406v-.003c0-.003 0-.006.002-.01v-.013l.002-.01v-.01.003l-.003.006zM153.113 24.812c-.004.004-.006.008-.008.012-.107.136-.22.278-.332.425l-.046.058-.08.104c-.11.146-.247.308-.405.484-.093.104-.194.214-.3.33.242.412.668.588.993.59.04 0 .076-.003.113-.007l.004-.002.002-.002c.323-.258.584-.47.766-.62.14-.115.232-.194.273-.23l.174-.14c.098-.08.23-.187.385-.317.01-.01.02-.02.03-.026l.095-.08.006-.005c-.696.163-1.274.04-1.67-.578zM152.014 27.614c-.318.093-.865-.004-1.043-.338-.005-.014-.01-.026-.018-.04-.08.08-.163.16-.247.242l-.18.174-.032.032-.057.054-.13.125c-.002 0-.003.002-.004.003-1.225 1.17-2.557 2.362-3.25 2.955-.004.004-.008.006-.01.01l-.086.072c-.025.02-.05.04-.07.06-.01.01-.02.016-.027.022l-.04.033-.02.016c0 .002-.004.004-.006.006-.008.005-.017.013-.024.02l-.026.02-.018.016c-.012.008-.022.018-.033.025-.005.005-.01.01-.015.013-.015.012-.027.02-.038.03l.326-.167c.008-.006.018-.01.025-.014.105-.057.21-.113.315-.172l.024-.014c.106-.06.213-.12.32-.184.12-.068.24-.14.363-.215.004 0 .008-.004.012-.007.113-.067.227-.138.34-.208l.014-.01c.03-.02.06-.04.095-.06l.016-.01.065-.04.04-.027c.013-.006.022-.014.034-.02l-.03.018c.033-.02.066-.04.098-.062.014-.007.025-.016.04-.024l.01-.008c.042-.025.084-.053.126-.08l.004-.002.002-.002.008-.006.004-.002.133-.088.038-.023.157-.105c1.01-.672 1.993-1.396 2.81-2.022h-.003c-.004.003-.01.004-.013.006z" fill="#000"/><path d="M150.555 16.417l-.146.15c-.075.366-.238.796-.568 1.312.164.048.498.134.703.175l1.24-1.702-1.23.064zM159.88 10.332l-3.83.198-1.736 2.392c1.23-.8 2.544-1.427 4.05-1.898.43-.134.84-.232 1.23-.297l.287-.395zM150.21 14.63c.002.008.005.016.01.024.007.02.015.04.02.06l.01.02.03.086v.003c.024.072.048.146.067.223l.005.02c.01.032.017.064.024.098l.01.05.014.068.016.09c0 .01.004.02.005.03.006.04.012.08.016.122.018.188.037.396.025.63.002 0 .002 0 .003-.002.12-.123.242-.244.365-.363l.037-.04.337-.323.07-.066c.103-.097.206-.192.31-.287.033-.032.067-.062.102-.094l.28-.254.138-.12.252-.216c.06-.05.117-.1.176-.147l.218-.18.233-.184c.058-.045.112-.09.168-.132.135-.104.27-.206.407-.305l-2.75.142-.162.26-.11.185c-.015.022-.283.493-.33.58 0 .006.003.012.006.02zM161.755 10.21c-.077-.67-.294-1.186-.616-1.563l-1.208 1.658 1.823-.095zM157.89 7.953c-1.443.34-3.106 1.27-4.64 2.697l2.785-.145 1.854-2.552z" fill="#F9EB00"/><path d="M154.254 12.96l1.762-2.428-2.793.145c-.863.808-1.683 1.773-2.4 2.883l2.77-.144c.218-.158.438-.31.66-.456zM159.63 10.72c.392-.062.763-.093 1.11-.093.375 0 .725.035 1.046.1-.002-.173-.012-.336-.028-.492l-1.844.095-.285.39zM159.9 10.306l1.223-1.68c-.03-.036-.062-.07-.096-.105-.474-.478-1.146-.714-1.955-.714h-.012c-.356 0-.737.047-1.135.14l-1.858 2.56 3.833-.2zM157.794 13.198l1.584-2.175c-.3.06-.613.14-.94.242-1.64.514-3.047 1.21-4.375 2.126l3.73-.192zM161.44 13.034l-3.633.19-2.115 2.9 3.63-.186 2.117-2.904zM157.774 18.098c.98-.166 1.96-.422 2.866-.805 1.014-.43 1.783-.956 2.334-1.52l-3.64.188-1.56 2.138zM154.032 18.363l1.608-2.21-3.816.198-1.242 1.71c.223.04.527.088.896.132.672.08 1.557.156 2.554.17zM150.582 16.39l1.223-.063 1.858-2.552.15-.208c-1.094.783-2.142 1.718-3.23 2.823zM163.99 12.878c-.158-.64-.588-1.196-1.27-1.558l-1.23 1.687 2.5-.13z" fill="#E30613"/><path d="M155.674 16.15l-1.61 2.213c.11.002.223.002.336.002 1.044 0 2.193-.07 3.34-.262l1.562-2.14-3.628.188zM157.774 13.225l-3.75.194c-.05.033-.1.067-.147.103l-2.033 2.802 3.816-.198 2.114-2.902zM159.414 11.017l-1.59 2.18 3.635-.188 1.24-1.7c-.517-.27-1.17-.427-1.96-.43-.407 0-.85.043-1.326.137zM163.995 12.902l-2.524.13-2.116 2.903 3.646-.188c.725-.754 1.06-1.57 1.058-2.308 0-.184-.023-.364-.063-.538zM140.52 17.164l-2.46 1.592c.693.162 1.416.222 2.07.22.877 0 1.633-.105 2.025-.207l.078-.022h.004c.025-.01.047-.016.066-.022-.102-.268-.174-.572-.207-.924l-1.575-.638z" fill="#F9EB00"/><path d="M139.28 11.32l-2.01 1.31c.024.092.053.187.087.284.412-.11.863-.17 1.348-.17.75 0 1.58.146 2.463.475l.514-.333c-.016-.052-.026-.108-.03-.165-.003-.13.032-.25.093-.354l-2.464-1.05zM140.92 10.22c-.478-.13-.934-.193-1.35-.193-.72 0-1.32.185-1.736.513-.037.03-.072.06-.105.09l1.55.66 1.64-1.07zM145.127 13.472l.337-.093c0-.002 0-.003-.003-.004-.203-.247-.41-.48-.622-.695l-.045-.046-.16-.16c-.03-.03-.06-.06-.092-.088l-.14-.132-.117-.107c-.04-.037-.082-.073-.122-.108l-.15-.13c-.03-.025-.06-.053-.094-.08-.083-.067-.166-.133-.25-.197l-.52.338c.805.136 1.55.738 1.98 1.502z" fill="#E30613"/><path d="M144.37 13.457l.302.13c-.47-.8-.916-1.312-1.76-1.2.05.086.076.185.08.29.002.063-.005.126-.02.186l1.397.594z" fill="#E30613"/><path d="M141.756 12.345c.074-.116.185-.208.316-.26.342-.14.693-.172 1.034-.12l.538-.35c-.916-.698-1.84-1.15-2.69-1.386l-1.647 1.073 2.45 1.042zM139.253 11.308l-1.544-.658c-.34.32-.53.75-.532 1.295 0 .204.03.424.087.658l1.988-1.295zM143.79 13.482c.25.216.32.29.336.315.166-.063.35-.126.54-.188l-1.702-.724c-.08.263-.323.46-.616.47-.3.01-.564-.18-.658-.446l-.492.317c.092.034.184.07.275.11l.062.024c.078.034.156.068.234.105l.122.057c.045.02.09.043.133.065.08.038.162.08.242.122l.02.01c.118.063.237.128.355.196.498-.45.767-.76 1.147-.434zM138.705 12.997c-.482 0-.93.062-1.332.174l2.342.988 1.188-.77c-.792-.272-1.53-.39-2.198-.39zM139.717 14.186l-2.5 1.617 3.302 1.334 1.686-1.09c.006-.034.012-.066.02-.1-.395-.158-.678-.424-.793-.59-.057-.08-.02-.217.114-.4l-1.83-.77zM135.127 14.985c-.11.27-.168.555-.168.84 0 .397.11.798.345 1.185l1.857-1.202-2.035-.823z" fill="#F9EB00"/><path d="M137.19 15.82l-1.872 1.21c.02.032.038.063.06.095.595.878 1.59 1.37 2.648 1.623l2.466-1.596-3.3-1.333zM139.69 14.174l-2.357-.992c-.536.153-.995.396-1.362.693-.384.312-.665.686-.833 1.087l2.052.83 2.5-1.618zM140.547 17.147l1.547.626c-.043-.48-.016-1.04.105-1.694l-1.653 1.067zM142.305 14.016l-.023-.013-.02-.013h-.003c-.065-.034-.128-.068-.192-.1-.012-.008-.023-.014-.037-.02-.048-.024-.096-.05-.145-.072-.017-.01-.034-.017-.052-.025l-.128-.06c-.02-.01-.04-.02-.06-.027-.04-.02-.08-.036-.12-.054l-.063-.026-.117-.05c-.02-.008-.04-.017-.062-.024l-.124-.05c-.02-.006-.036-.013-.054-.02l-.174-.062-1.19.77 1.82.766c.145-.194.395-.44.755-.733.045-.036.088-.072.13-.108l-.142-.08z" fill="#E30613"/><path d="M143.728 18.055c-.007-.053-.01-.104-.01-.154 0-.548.41-1.03.978-1.104.052-.008.104-.01.157-.01.452 0 .857.265 1.036.664-.02-.217-.063-.443-.128-.672-.31-1.062-1.093-1.75-1.863-1.535-.77.218-1.112 1.263-.806 2.328.188.655.613 1.044 1.086 1.233-.24-.174-.41-.437-.452-.748zM148.162 13.87c-.8-.063-1.516.855-1.484 1.965.018.62.2 1.073.493 1.356-.11-.145-.186-.32-.213-.513-.008-.05-.01-.104-.01-.154 0-.55.41-1.028.978-1.104.053-.01.106-.012.158-.012.557 0 1.04.403 1.12.963.008.054.012.106.012.157 0 .095-.014.188-.036.275.094-.23.155-.515.183-.855.088-1.1-.404-2.014-1.2-2.076z" fill="#FFF"/><path d="M145.668 18.604c.168-.19.268-.438.268-.7 0-.05-.003-.1-.01-.147-.006-.043-.016-.084-.025-.125-.124-.47-.556-.797-1.046-.797-.05 0-.1.004-.15.01-.544.073-.936.533-.936 1.057 0 .05.004.098.01.146.055.385.31.69.646.834.133.057.277.088.428.088.05 0 .1-.003.152-.01.04-.006.08-.014.12-.023.216-.056.403-.175.544-.333zm-.693-.49l.008.065.06.52h-.007l-.07.013c-.448.062-.863-.243-.934-.682l-.004-.016c-.063-.45.254-.862.71-.925.454-.063.876.25.938.698.01.064.01.128.004.19-.018.183-.098.35-.22.48l-.485-.345zM148.084 15.458c-.05 0-.1.004-.152.01-.543.074-.935.53-.935 1.056 0 .05.003.098.01.148.042.3.207.553.438.717.18.128.4.202.635.202.05 0 .1-.003.15-.01.233-.032.44-.135.598-.283.21-.197.34-.474.34-.772 0-.05-.005-.098-.013-.148-.077-.536-.54-.922-1.07-.922zm.574 1.657l-.52-.398.057.62c-.454.06-.875-.25-.938-.7-.064-.448.254-.86.71-.923.454-.064.874.25.937.7.04.268-.062.525-.246.7z" fill="#F9EB00"/><path d="M163.365 11.45c-.354-.295-.8-.523-1.326-.664v-.01c0-1.083-.303-1.894-.833-2.432-.53-.54-1.278-.79-2.135-.79-2.72.007-6.62 2.497-9.002 6.772-.096-.183-.19-.312-.255-.36-.173-.13-.37-.225-.13-.712.238-.49.074-.56-1.148-.91-1.223-.348-1.404-.11-1.482.206l-.18.48c-.05.014-.162.04-.312.075-.188-.856-.092-1.826.92-2.124 0 .03.002.06.006.09.05.36.388.61.755.56.367-.05.622-.382.57-.746-.04-.297-.28-.52-.567-.56l-.008-.002c-1.51-.2-2.358 1.952-2.095 2.883-.13.03-.268.065-.412.104-2.01-2.472-4.38-3.533-6.162-3.534-.76 0-1.418.194-1.892.566-.474.37-.754.926-.752 1.604 0 .32.06.667.188 1.04-.503.162-.942.4-1.302.693-.7.567-1.105 1.342-1.105 2.146 0 .487.148.982.463 1.44 1.085 1.58 3.264 1.96 4.96 1.963.6 0 1.142-.05 1.56-.113.21-.03.39-.067.53-.104.07-.02.134-.038.187-.057.758 1.56 2.594 1.588 3.086 1.562.705-.036 1.314.123 1.953.49.035-.185.81-1.266 1.482-1.966.06-.065.115-.128.172-.192.235-.27.432-.52.596-.754.204.062.37.104.404.113.004 0 .007 0 .01.003-.246.414-.506.72-.72.857h-.005c-.246.002-.328-.068-.387.966l-.584.09c-.282.782-1.465 2.847-1.8 3.248-.04-.512-.427-1.22-.62.02-.104.66.248 1.29.747.897.502-.39 1.836-3.475 1.914-3.616l.31-.05c-.07.906-.183 1.35-.198 1.466-.012.13-.154.28-.28.102-.122-.176-.354.02-.095.466.26.448.442.357.515-.07l.33-2.004.658-.104c-.168 1.12-1.098 4.208-1.25 4.518-.055-.378-.463-.483-.55.27-.09.757.632 1.236.733.805.102-.435 1.422-5.003 1.602-5.122.072-.05.162-.095.243-.133.007.502-.008 1.312-.014 1.52-.01.39.214.584.604.11.392-.47.312-.815-.043-.54-.354.273-.272-.544-.235-.742.037-.2.107-.802.477-.324.344.445.624.663.744.755-.183.264-1.435 2.34-1.724 3.22-.318.977.308 1.248.984.703.676-.544.2-.672-.043-.543-.24.132-.468.16-.282-.38.145-.423 1.01-1.99 1.47-2.79l-.035.312c-.062.585-.083.926-.054 1.128.053.378.268.512.747-.037.137-.18.02-.325-.2-.264-.167.048-.28.048-.198-.352.055-.27.224-1.287.378-1.804l.123.03.03.008.088.024c.013.004.025.01.04.013l.073.024.044.016c.022.01.045.018.066.026.014.005.03.01.043.018l.062.03.042.02c.02.01.04.022.06.034l.02.01.02.013.062.043.03.02.09.072c1.743-.508 3.467-1.944 3.802-2.496l-.03-.017c-.21-.11-.413-.193-.608-.252 1.166-.162 2.346-.44 3.434-.9 2.44-1.03 3.57-2.648 3.572-4.086 0-.77-.33-1.482-.945-1.99zm-19.45.38l.096.08c.052.043.102.085.15.13.04.035.082.07.123.107.04.036.08.07.117.107.048.043.094.087.14.132.032.03.063.06.092.09.054.05.107.103.16.158l.046.047c.21.218.42.45.623.696.003 0 .003.002.004.003-.11.03-.224.06-.337.092-.43-.764-1.176-1.366-1.982-1.5l.522-.34c.083.064.166.13.25.2zm-.923.846c-.004-.104-.03-.202-.08-.29.844-.11 1.29.4 1.76 1.2l-.303-.13-1.398-.593c.015-.06.022-.123.02-.187zm.653-1.06l-.538.348c-.34-.05-.692-.02-1.034.12-.132.053-.242.145-.316.26l-2.45-1.04 1.648-1.075c.85.235 1.774.687 2.69 1.386zm-1.993 1.105c.003.058.014.114.03.166l-.515.332c-.884-.33-1.713-.474-2.463-.474-.484 0-.936.06-1.348.17-.034-.098-.062-.192-.086-.285l2.01-1.312 2.463 1.048c-.06.105-.095.226-.09.355zm-.22 2.636c.115.167.398.433.793.59-.008.034-.014.066-.02.1l-1.687 1.09-3.302-1.333 2.5-1.617 1.83.77c-.133.185-.17.32-.114.4zm.662 2.417l-1.547-.626 1.652-1.068c-.122.654-.15 1.215-.106 1.693zm.002.01l-.03-.012.03.013zm-2.38-3.625l-2.343-.987c.403-.11.85-.173 1.332-.173.668 0 1.406.12 2.197.393l-1.187.768zm-1.882-3.618c.416-.328 1.018-.513 1.736-.513.416 0 .872.062 1.35.193l-1.642 1.07-1.55-.66.106-.09zm-.125.11l1.543.658-1.988 1.296c-.058-.234-.087-.455-.087-.658.002-.545.193-.976.53-1.296zm-1.74 3.225c.368-.298.827-.54 1.363-.693l2.356.992-2.502 1.617-2.052-.828c.17-.4.45-.774.835-1.087zm-1.01 1.95c0-.285.058-.568.167-.84l2.035.822-1.857 1.202c-.236-.387-.345-.788-.346-1.184zm.417 1.3l-.06-.095 1.874-1.21 3.302 1.332-2.466 1.596c-1.06-.253-2.053-.745-2.65-1.623zm6.928 1.6c-.02.007-.04.014-.066.02-.003 0-.003 0-.005.002-.023.007-.05.015-.078.02-.393.103-1.148.21-2.025.21-.654 0-1.377-.06-2.07-.222l2.46-1.592 1.577.637c.03.352.103.657.205.925zm.01-4.523c-.358.293-.608.54-.755.733l-1.818-.766 1.19-.77c.058.02.115.04.173.062l.053.02.124.05c.02.007.04.016.062.023.04.017.078.032.117.05l.063.026c.04.02.08.036.12.055.02.01.04.018.06.026.043.022.086.04.13.062.017.01.034.017.05.025.05.023.098.048.147.072.014.005.025.01.037.018.064.032.127.066.19.1h.003l.02.014.167.09c-.043.038-.086.074-.13.11zm.33-.284c-.12-.068-.238-.134-.355-.195l-.02-.012c-.08-.04-.163-.083-.243-.12-.044-.023-.088-.045-.133-.066l-.123-.057c-.077-.036-.155-.07-.233-.104-.02-.01-.042-.018-.062-.025-.092-.04-.184-.075-.275-.11l.492-.316c.094.268.357.457.658.446.293-.01.537-.207.616-.47l1.702.723c-.19.063-.374.125-.54.19-.015-.025-.087-.1-.337-.316-.38-.33-.65-.018-1.146.434zm.45 3.652c-.307-1.065.036-2.11.805-2.328.77-.214 1.554.474 1.863 1.535.065.23.108.455.127.672-.18-.4-.584-.666-1.036-.666-.053 0-.105.003-.157.01-.57.076-.98.558-.98 1.106 0 .05.005.102.012.154.043.312.213.574.452.748-.474-.19-.9-.577-1.087-1.232zm1.91 1.39c-.053.006-.103.01-.153.01-.15 0-.295-.032-.428-.09-.337-.142-.592-.448-.646-.833-.006-.05-.01-.098-.01-.146 0-.522.392-.982.936-1.055.05-.007.1-.01.15-.01.49 0 .922.327 1.047.796.01.042.02.083.026.126.007.05.01.098.01.146 0 .264-.1.512-.268.7-.14.16-.328.278-.545.333-.04.01-.08.018-.12.024zm.263.44c1.146.025 1.656.14 2.443-1.064-.19 1.516-.537 2.538-2.442 1.065zm3.56-2.1c-.158.147-.365.25-.598.282-.05.007-.102.01-.15.01-.235 0-.455-.074-.636-.203-.23-.165-.396-.418-.438-.718-.007-.05-.01-.1-.01-.148 0-.524.392-.98.935-1.055.053-.008.105-.012.153-.012.53 0 .994.386 1.07.92.008.05.012.1.012.15 0 .298-.128.575-.338.77zm.535-1.353c-.027.34-.09.625-.184.855.02-.088.035-.18.035-.275 0-.05-.004-.103-.01-.156-.08-.56-.565-.962-1.122-.962-.052 0-.105.003-.158.01-.568.077-.98.555-.98 1.105 0 .05.004.104.012.154.027.193.104.367.214.514-.292-.282-.475-.737-.492-1.355-.03-1.11.686-2.028 1.484-1.964.797.063 1.29.977 1.2 2.077zm-.03 4.04l.03-.17c.032-.18-.013-.462.47-.075.063.053.126.098.185.14l-.684.104zm14.656-7.11l-2.5.13 1.23-1.687c.682.362 1.112.918 1.27 1.558zm-1.29-1.568l-1.24 1.7-3.635.187 1.59-2.18c.475-.094.918-.137 1.326-.137.79.002 1.444.16 1.96.43zm-8.823 2.212l.147-.104 3.75-.194-2.114 2.902-3.816.198 2.033-2.802zm-2.072 2.805l-1.223.063c1.09-1.105 2.137-2.04 3.232-2.824l-.15.208-1.86 2.553zm6.633-5.062c.327-.102.64-.182.94-.242l-1.584 2.175-3.73.193c1.327-.913 2.733-1.61 4.374-2.125zm-4.125 1.657l1.735-2.392 3.832-.198-.287.395c-.39.065-.8.163-1.23.297-1.506.47-2.818 1.097-4.05 1.898zm3.494.3l3.633-.187-2.118 2.903-3.63.188 2.115-2.903zm3.98-2.495c-.322-.065-.672-.1-1.046-.1-.348 0-.72.03-1.11.094l.284-.39 1.844-.095c.016.156.026.32.028.492zm-.032-.517l-1.823.094 1.207-1.658c.32.378.538.894.615 1.564zm-2.694-2.404h.013c.81 0 1.48.235 1.955.715l.096.106-1.223 1.68-3.832.198 1.858-2.56c.397-.09.778-.138 1.135-.138zm-1.17.147l-1.855 2.553-2.785.145c1.533-1.428 3.196-2.356 4.64-2.697zm-4.667 2.724l2.793-.145-1.762 2.428c-.223.146-.443.298-.662.456l-2.77.144c.718-1.11 1.537-2.076 2.4-2.883zm-2.88 3.673l.008-.01.14-.24.042-.07.11-.184c.055-.088.108-.174.164-.26l2.75-.143c-.138.1-.273.2-.408.305-.056.043-.11.087-.167.13l-.232.186-.218.18c-.06.048-.117.097-.176.146-.084.07-.168.144-.252.217l-.137.12c-.094.082-.188.167-.28.252-.035.03-.07.06-.104.093-.102.095-.205.19-.308.288l-.07.067c-.112.106-.224.215-.337.324l-.037.04c-.123.118-.244.24-.365.362l-.002.002c.013-.235-.007-.443-.024-.63l-.015-.12c0-.012-.003-.022-.004-.033l-.016-.088-.014-.07-.01-.048-.024-.098c0-.006-.003-.014-.005-.02-.02-.076-.043-.15-.066-.223v-.003l-.03-.085-.01-.022-.02-.06c-.005-.008-.008-.016-.01-.024l-.01-.022.144-.258zm-.5 3.53c.33-.518.492-.947.566-1.313l.145-.15 1.23-.063-1.24 1.702c-.205-.042-.54-.128-.703-.177zm.74.18l1.24-1.708 3.817-.198-1.608 2.21c-.997-.016-1.882-.09-2.554-.17-.37-.046-.673-.092-.896-.133zm2.105 3.025l-.014.126c-.258-.202-.6-.515-.714-.68.114.028.22.05.32.07l.01.003.092.02.363.066h.003l-.06.395zm.455-.906c-.506.306-1.11.153-1.704-.17.207-.13.76-.704 1.218-1.453.528.037 1.116.062 1.742.062l.24-.003c-.47.715-1.113 1.33-1.497 1.562zm1.256-1.815c-.114 0-.227 0-.338-.002l1.61-2.212 3.63-.187-1.564 2.14c-1.145.193-2.295.262-3.34.262zm6.24-1.072c-.905.383-1.884.64-2.865.805l1.56-2.136 3.64-.188c-.55.563-1.32 1.09-2.334 1.52zm2.36-1.546l-3.646.188 2.117-2.902 2.525-.13c.04.173.062.353.062.536.002.737-.332 1.553-1.057 2.307z" fill="#000"/><path d="M145.676 17.79c-.062-.45-.484-.763-.938-.7-.456.062-.773.476-.71.925 0 .005.002.01.004.017.07.438.485.743.934.682l.07-.013h.006l-.06-.52-.007-.066.484.348c.122-.13.202-.3.22-.482.006-.063.006-.126-.004-.19zM147.967 15.714c-.455.062-.773.475-.71.923.063.45.484.762.94.7l-.058-.62.52.398c.183-.176.284-.434.245-.703-.063-.447-.483-.763-.938-.698z" fill="#000"/><path d="M145.268 19.4c1.905 1.474 2.254.45 2.443-1.064-.786 1.204-1.297 1.09-2.442 1.065z" fill="#FFF"/></g></svg>